<?xml version="1.0" encoding="utf-8"?>
<!-- Generator: Adobe Illustrator 18.1.0, SVG Export Plug-In . SVG Version: 6.00 Build 0)  -->
<svg version="1.1" xmlns="http://www.w3.org/2000/svg" xmlns:xlink="http://www.w3.org/1999/xlink" x="0px" y="0px"
	 viewBox="0 0 1001 1099" enable-background="new 0 0 1001 1099" xml:space="preserve">
<g id="Layer_1">
	<g>
		<line fill="#FFFFFF" x1="99" y1="128" x2="99" y2="273"/>
		<path d="M99.5,128c0,0,0.2,2.3,0.5,6.2c0.3,4,0.6,9.6,0.9,16.4c0.2,3.4,0.3,7.1,0.4,11c0.1,3.9,0.3,8,0.4,12.2
			c0.1,4.2,0.2,8.6,0.2,13.1c0,4.5,0.1,9,0.1,13.5c0,4.5,0,9.1-0.1,13.5c0,4.5-0.1,8.9-0.2,13.1c-0.1,4.2-0.2,8.4-0.4,12.2
			c-0.1,3.9-0.3,7.6-0.4,11c-0.3,6.8-0.7,12.5-0.9,16.4c-0.3,4-0.5,6.2-0.5,6.2s-0.2-2.3-0.5-6.2c-0.3-4-0.6-9.6-0.9-16.4
			c-0.2-3.4-0.3-7.1-0.4-11c-0.1-3.9-0.3-8-0.4-12.2c-0.1-4.2-0.2-8.6-0.2-13.1c0-4.5,0-9-0.1-13.5c0-4.5,0.1-9.1,0.1-13.5
			c0-4.5,0.1-8.9,0.2-13.1c0.1-4.2,0.2-8.4,0.4-12.2c0.1-3.9,0.3-7.6,0.4-11c0.3-6.8,0.7-12.5,0.9-16.4
			C99.3,130.3,99.5,128,99.5,128z"/>
	</g>
	<g>
		<line fill="#FFFFFF" x1="99.3" y1="204" x2="200" y2="100"/>
		<path d="M99.3,204c0,0,1.4-1.8,4-4.8c2.6-3,6.2-7.4,10.7-12.4c2.2-2.5,4.7-5.3,7.3-8.2c2.6-2.9,5.4-5.9,8.3-9
			c2.9-3.1,5.9-6.3,8.9-9.5c3.1-3.2,6.2-6.5,9.3-9.8c3.2-3.2,6.3-6.5,9.4-9.6c3.1-3.2,6.2-6.3,9.2-9.2c3-3,6-5.8,8.8-8.5
			c2.8-2.7,5.5-5.2,7.9-7.6c4.9-4.7,9.1-8.5,12.1-11.1c3-2.6,4.7-4.1,4.7-4.1s-1.4,1.8-4,4.8c-2.6,3-6.2,7.4-10.7,12.4
			c-2.2,2.5-4.7,5.3-7.3,8.2c-2.6,2.9-5.4,5.9-8.3,9c-2.9,3.1-5.9,6.3-8.9,9.5c-3.1,3.2-6.2,6.5-9.3,9.8c-3.2,3.2-6.3,6.5-9.4,9.6
			c-3.1,3.2-6.2,6.3-9.2,9.2c-3,3-6,5.8-8.8,8.5c-2.8,2.7-5.5,5.2-7.9,7.6c-4.9,4.7-9.1,8.5-12.1,11.1C101,202.5,99.3,204,99.3,204z
			"/>
	</g>
	<g>
		<line fill="#FFFFFF" x1="110.6" y1="192.1" x2="173" y2="273"/>
		<path d="M110.6,192.1c0,0,1.1,1.1,3.1,3.2c1.9,2,4.7,5,7.8,8.6c1.6,1.8,3.3,3.8,5.1,5.9c1.8,2.1,3.7,4.3,5.6,6.6
			c1.9,2.3,3.9,4.7,5.8,7.2c2,2.5,3.9,5,5.9,7.5c1.9,2.5,3.9,5.1,5.8,7.6c1.9,2.5,3.7,5,5.5,7.4c1.8,2.4,3.4,4.8,5,7
			c1.6,2.2,3,4.4,4.4,6.4c2.7,4,4.8,7.4,6.3,9.7c1.5,2.4,2.3,3.8,2.3,3.8s-1.1-1.1-3.1-3.2c-1.9-2-4.7-5-7.8-8.6
			c-1.6-1.8-3.3-3.8-5.1-5.9c-1.8-2.1-3.7-4.3-5.6-6.6c-1.9-2.3-3.9-4.7-5.8-7.2c-2-2.5-3.9-5-5.9-7.5c-1.9-2.5-3.9-5.1-5.8-7.6
			c-1.9-2.5-3.7-5-5.5-7.4c-1.8-2.4-3.4-4.8-5-7c-1.6-2.2-3-4.4-4.4-6.4c-2.7-4-4.8-7.4-6.3-9.7
			C111.4,193.5,110.6,192.1,110.6,192.1z"/>
	</g>
	<g>
		<line fill="#FFFFFF" x1="121.3" y1="176.9" x2="300" y2="400.5"/>
		<path d="M121.3,176.9c0,0,2.8,3.5,7.8,9.5c5,6.1,12.1,14.7,20.5,25.1c8.4,10.4,18.4,22.5,28.9,35.6c10.5,13.1,21.7,27,32.9,41
			c11.1,14,22.3,28,32.7,41.1c10.4,13.1,20.1,25.5,28.4,36c8.3,10.5,15.1,19.4,20,25.6c4.8,6.2,7.5,9.7,7.5,9.7s-2.8-3.5-7.8-9.5
			c-5-6.1-12.1-14.7-20.5-25.1c-8.4-10.4-18.4-22.5-28.9-35.6c-10.5-13.1-21.7-27-32.9-41c-11.1-14-22.3-28-32.7-41.1
			c-10.4-13.1-20.1-25.5-28.4-36c-8.3-10.5-15.1-19.4-20-25.6C124,180.4,121.3,176.9,121.3,176.9z"/>
	</g>
	<g>
		<line fill="#FFFFFF" x1="111" y1="99" x2="111" y2="920"/>
		<path d="M111,99c0,0,0.2,51.3,0.6,128.3c0.1,38.5,0.2,83.4,0.3,131.5c0,48.1,0.1,99.4,0.1,150.7c0,51.3-0.1,102.6-0.1,150.7
			c-0.1,48.1-0.2,93-0.3,131.5c-0.3,77-0.6,128.3-0.6,128.3s-0.2-51.3-0.6-128.3c-0.1-38.5-0.2-83.4-0.3-131.5
			c0-48.1-0.1-99.4-0.1-150.7c0-51.3,0.1-102.6,0.1-150.7c0.1-48.1,0.2-93,0.3-131.5C110.8,150.3,111,99,111,99z"/>
	</g>
	<g>
		<line fill="#FFFFFF" x1="99.3" y1="180" x2="149.6" y2="129.2"/>
		<path d="M99.3,180c0,0,0.7-0.9,2-2.3c1.3-1.5,3.2-3.6,5.4-6c2.3-2.5,4.9-5.3,7.8-8.4c1.5-1.5,2.9-3.1,4.5-4.7
			c1.5-1.6,3.1-3.2,4.7-4.8c1.6-1.6,3.2-3.2,4.7-4.7c1.5-1.6,3.1-3.1,4.6-4.5c3-2.9,5.8-5.6,8.3-7.9c2.4-2.3,4.5-4.2,6-5.5
			c1.5-1.3,2.3-2,2.3-2s-0.7,0.9-2,2.3c-1.3,1.5-3.2,3.6-5.4,6c-2.3,2.5-4.9,5.3-7.8,8.4c-1.5,1.5-2.9,3.1-4.5,4.7
			c-1.5,1.6-3.1,3.2-4.7,4.8c-1.6,1.6-3.2,3.2-4.7,4.7c-1.6,1.6-3.1,3.1-4.6,4.5c-3,2.9-5.8,5.6-8.3,7.9c-2.4,2.3-4.5,4.2-6,5.5
			C100.1,179.3,99.3,180,99.3,180z"/>
	</g>
	<g>
		<path d="M219,154c0,0,0.1,1.1,0.2,2.9c0.1,1.9,0.3,4.5,0.4,7.7c0.1,3.2,0.2,6.9,0.3,10.9c0,2,0.1,4.1,0.1,6.1c0,2.1,0,4.2,0,6.3
			c0,2.1,0,4.3,0,6.3c0,2.1-0.1,4.2-0.1,6.1c-0.1,4-0.2,7.7-0.3,10.9c-0.1,3.2-0.3,5.8-0.4,7.7c-0.1,1.9-0.2,2.9-0.2,2.9
			s-0.1-1.1-0.2-2.9c-0.1-1.9-0.3-4.5-0.4-7.7c-0.1-3.2-0.2-6.9-0.3-10.9c0-2-0.1-4.1-0.1-6.1c0-2.1,0-4.2,0-6.3c0-2.1,0-4.3,0-6.3
			c0-2.1,0.1-4.2,0.1-6.1c0.1-4,0.2-7.7,0.3-10.9c0.1-3.2,0.3-5.8,0.4-7.7C218.9,155.1,219,154,219,154z"/>
	</g>
	<g>
		<path d="M206.5,177c0,0,0.7,1.1,1.9,3c1.2,1.9,2.9,4.7,4.9,8c2,3.3,4.3,7.2,6.7,11.5c1.2,2.1,2.4,4.3,3.7,6.5
			c1.2,2.2,2.5,4.5,3.8,6.7c1.2,2.3,2.5,4.5,3.7,6.8c1.2,2.2,2.4,4.5,3.5,6.6c2.3,4.3,4.4,8.3,6.1,11.8c1.8,3.5,3.2,6.4,4.2,8.4
			c1,2,1.5,3.2,1.5,3.2s-0.7-1.1-1.9-3c-1.2-1.9-2.9-4.7-4.9-8c-2-3.3-4.3-7.2-6.7-11.5c-1.2-2.1-2.5-4.3-3.7-6.5
			c-1.2-2.2-2.5-4.5-3.8-6.7c-1.2-2.3-2.5-4.5-3.7-6.8c-1.2-2.2-2.4-4.5-3.5-6.6c-2.3-4.3-4.4-8.3-6.1-11.8
			c-1.8-3.5-3.2-6.4-4.2-8.4C207,178.2,206.5,177,206.5,177z"/>
	</g>
	<g>
		<path d="M205,150c0.2,4.1,0.5,8.2,0.7,12.2c0.2,4.1,0.4,8.2,0.6,12.2c0.2,4.1,0.4,8.2,0.5,12.2l0.4,12.2l-0.2-0.8l7,12.5l3.5,6.2
			l3.5,6.3l6.9,12.5c2.3,4.2,4.6,8.4,6.8,12.6l-2.1-1.3l20.2-0.1l20.2,0.1l-2.2,1.5c1.8-4.2,3.6-8.4,5.5-12.6l5.5-12.6
			c1.8-4.2,3.7-8.4,5.6-12.5l5.6-12.5l-0.1,0.7c0.2-8.2,0.4-16.3,0.7-24.5c0.1-4.1,0.3-8.2,0.4-12.2c0.1-4.1,0.4-8.2,0.6-12.2
			c0.2,4.1,0.4,8.2,0.6,12.2c0.2,4.1,0.3,8.2,0.4,12.2c0.3,8.2,0.5,16.3,0.7,24.5l0,0.3l-0.1,0.4l-5.2,12.7
			c-1.7,4.2-3.4,8.5-5.2,12.7l-5.3,12.7c-1.7,4.2-3.5,8.5-5.3,12.7l-0.6,1.5l-1.6,0l-20.2,0.1l-20.2-0.1l-1.5,0l-0.7-1.3
			c-2.2-4.2-4.5-8.4-6.7-12.7l-6.6-12.7l-3.3-6.4l-3.3-6.4l-6.5-12.8l-0.2-0.4l0-0.4l0.2-12.3c0.1-4.1,0.2-8.2,0.2-12.3
			c0.1-4.1,0.2-8.2,0.3-12.3C204.7,158.2,204.8,154.1,205,150z"/>
	</g>
	<g>
		<path d="M286,150c0,0,0.1,1.1,0.2,3.1c0.1,1.9,0.3,4.7,0.4,8c0.1,3.3,0.2,7.2,0.3,11.4c0,2.1,0.1,4.2,0.1,6.4c0,2.2,0,4.4,0,6.6
			c0,2.2,0,4.4,0,6.6c0,2.2-0.1,4.3-0.1,6.4c-0.1,4.2-0.2,8-0.3,11.4c-0.1,3.3-0.3,6.1-0.4,8c-0.1,1.9-0.2,3.1-0.2,3.1
			s-0.1-1.1-0.2-3.1c-0.1-1.9-0.3-4.7-0.4-8c-0.1-3.3-0.2-7.2-0.3-11.4c0-2.1-0.1-4.2-0.1-6.4c0-2.2,0-4.4,0-6.6c0-2.2,0-4.4,0-6.6
			c0-2.2,0.1-4.3,0.1-6.4c0.1-4.2,0.2-8,0.3-11.4c0.1-3.3,0.3-6.1,0.4-8C285.9,151.1,286,150,286,150z"/>
	</g>
	<g>
		<path d="M227,234c0,0,3.1-0.3,7.8-0.6c2.3-0.1,5.1-0.2,8-0.3c1.5,0,3-0.1,4.5-0.1c1.5,0,3.1,0,4.7,0c1.6,0,3.1,0,4.7,0
			c1.5,0,3.1,0.1,4.5,0.1c2.9,0.1,5.7,0.2,8,0.3c4.7,0.2,7.8,0.6,7.8,0.6s-3.1,0.3-7.8,0.6c-2.3,0.1-5.1,0.2-8,0.3
			c-1.5,0-3,0.1-4.5,0.1c-1.5,0-3.1,0-4.7,0c-1.6,0-3.1,0-4.7,0c-1.5,0-3.1-0.1-4.5-0.1c-2.9-0.1-5.7-0.2-8-0.3
			C230.1,234.3,227,234,227,234z"/>
	</g>
	<g>
		<path d="M293.5,174c0,0-2.8,6.3-7.7,17.2c-4.9,10.9-11.9,26.5-20.3,45.3c-8.5,18.7-18.4,40.5-29,63.9
			c-10.7,23.4-22,48.3-33.4,73.2c-11.4,24.9-22.9,49.7-33.6,73.1c-10.8,23.3-20.9,45-29.5,63.7c-8.7,18.6-15.9,34.1-21,45
			c-5.1,10.8-8,17-8,17s2.8-6.3,7.7-17.2c4.9-10.9,11.9-26.5,20.3-45.3c8.5-18.7,18.4-40.5,29-63.9c10.7-23.4,22-48.3,33.4-73.2
			c11.4-24.9,22.9-49.7,33.6-73.1c10.8-23.3,20.9-45,29.5-63.7c8.7-18.6,15.9-34.1,21-45C290.6,180.2,293.5,174,293.5,174z"/>
	</g>
	<g>
		<path d="M316,142c0,0,0.1,4,0.2,11.1c0.1,7.1,0.3,17.1,0.4,29.2c0.1,12.1,0.3,26.2,0.3,41.3c0,15.1,0.1,31.2,0.1,47.4
			c0,16.1-0.1,32.3-0.1,47.4c0,15.1-0.2,29.2-0.3,41.3c-0.1,12.1-0.3,22.2-0.4,29.2C316.1,396,316,400,316,400s-0.1-4-0.2-11.1
			c-0.1-7.1-0.3-17.1-0.4-29.2c-0.1-12.1-0.3-26.2-0.3-41.3c0-15.1-0.1-31.2-0.1-47.4c0-16.1,0.1-32.3,0.1-47.4
			c0-15.1,0.2-29.2,0.3-41.3c0.1-12.1,0.3-22.2,0.4-29.2C315.9,146,316,142,316,142z"/>
	</g>
	<g>
		<path fill="none" d="M375,150.5"/>
	</g>
	<g>
		<path d="M375,250.5c-2.1,0.2-4.3,0.4-6.4,0.5c-2.1,0.1-4.3,0.3-6.4,0.4l-6.4,0.4l-6.4,0.3c-2.1,0.1-4.3,0.2-6.4,0.3l-6.4,0.2
			c-2.1,0.1-4.3,0.1-6.4,0.2l-6.4,0.1l-2.2,0l0-2.3c-0.1-4.1-0.2-8.3-0.2-12.4l-0.1-12.4l0.1-12.4c0-4.1,0.1-8.3,0.2-12.4
			c0.1-4.1,0.2-8.3,0.3-12.4l0.2-6.2l0.3-6.2c0.2-4.1,0.4-8.3,0.6-12.4c0.1-2.1,0.3-4.1,0.4-6.2c0.1-2.1,0.3-4.1,0.5-6.2
			c0.2,2.1,0.4,4.1,0.5,6.2c0.1,2.1,0.3,4.1,0.4,6.2c0.2,4.1,0.5,8.3,0.6,12.4l0.3,6.2l0.2,6.2c0.1,4.1,0.2,8.3,0.3,12.4
			c0.1,4.1,0.2,8.3,0.2,12.4l0.1,12.4l-0.1,12.4c0,4.1-0.1,8.3-0.2,12.4l-2.3-2.3l6.4,0.1c2.1,0,4.3,0.1,6.4,0.2l6.4,0.2
			c2.1,0.1,4.3,0.2,6.4,0.3l6.4,0.3l6.4,0.4c2.1,0.1,4.3,0.3,6.4,0.4C370.7,250.1,372.9,250.3,375,250.5z"/>
	</g>
	<g>
		<path d="M323,159c0,0,3.3-0.3,8.3-0.6c2.5-0.1,5.4-0.2,8.5-0.3c1.6,0,3.2-0.1,4.8-0.1c1.6,0,3.3,0,4.9,0c1.7,0,3.3,0,4.9,0
			c1.6,0,3.2,0.1,4.8,0.1c3.1,0.1,6,0.2,8.5,0.3c5,0.2,8.3,0.6,8.3,0.6s-3.3,0.3-8.3,0.6c-2.5,0.1-5.4,0.2-8.5,0.3
			c-1.6,0-3.2,0.1-4.8,0.1c-1.6,0-3.3,0-4.9,0c-1.7,0-3.3,0-4.9,0c-1.6,0-3.2-0.1-4.8-0.1c-3.1-0.1-6-0.2-8.5-0.3
			C326.3,159.3,323,159,323,159z"/>
	</g>
	<g>
		<path fill="none" d="M370,210"/>
	</g>
	<g>
		<path fill="none" d="M323,210"/>
	</g>
	<g>
		<path fill="none" d="M377,192"/>
	</g>
	<g>
		<path fill="none" d="M325,192"/>
	</g>
	<g>
		<path d="M316,259c0,0,3.4-0.3,8.4-0.6c2.5-0.1,5.5-0.2,8.6-0.3c1.6,0,3.2-0.1,4.9-0.1c1.7,0,3.3,0,5,0c1.7,0,3.4,0,5,0
			c1.7,0,3.3,0.1,4.9,0.1c3.2,0.1,6.1,0.2,8.6,0.3c5.1,0.2,8.4,0.6,8.4,0.6s-3.4,0.3-8.4,0.6c-2.5,0.1-5.5,0.2-8.6,0.3
			c-1.6,0-3.2,0.1-4.9,0.1c-1.7,0-3.3,0-5,0c-1.7,0-3.4,0-5,0c-1.7,0-3.3-0.1-4.9-0.1c-3.2-0.1-6.1-0.2-8.6-0.3
			C319.4,259.3,316,259,316,259z"/>
	</g>
	<g>
		<path d="M323.5,199l7.9-0.2l7.9-0.1c5.3-0.1,10.6-0.1,15.9-0.1l0.3,0l0.3,0.2l14.4,8.8c4.8,2.9,9.5,5.9,14.3,8.9l0.9,0.5l0,1.1
			c0.1,5,0.2,10,0.2,15l0,0.5l-0.2,0.5l-10.2,21l-10.4,21c-3.4,7-7,14-10.5,20.9l-5.3,10.5l-5.3,10.4c-3.6,6.9-7.1,13.9-10.7,20.8
			c-3.6,6.9-7.2,13.9-10.8,20.7c-3.6,6.9-7.3,13.8-11,20.7l-5.6,10.3c-1.9,3.4-3.8,6.8-5.7,10.2c1.6-3.6,3.1-7.1,4.8-10.7l4.9-10.7
			c3.2-7.1,6.5-14.2,9.9-21.2c3.3-7.1,6.7-14.1,10-21.1c3.3-7.1,6.8-14,10.2-21.1l5.1-10.5l5.2-10.5c3.5-7,6.9-14,10.4-21l10.5-20.9
			l10.7-20.8l-0.2,1c0-5,0.2-10,0.2-15l0.9,1.6c-4.7-3.1-9.3-6.2-13.9-9.4l-13.9-9.5l0.6,0.2c-5.3-0.3-10.6-0.6-15.9-0.9l-7.9-0.5
			L323.5,199z"/>
	</g>
	<g>
		<path d="M356,133c2.6,2.9,5.2,5.9,7.8,8.9c2.5,3,5.1,6,7.6,9c2.5,3,5,6,7.5,9.1l7.4,9.1l0.2,0.3l0,0.4c-0.2,4.8-0.3,9.6-0.6,14.3
			l0,0.5l-0.5,0.2l-7.3,3.8l-7.3,3.8c-2.4,1.3-4.9,2.5-7.4,3.7c-2.5,1.2-4.9,2.5-7.4,3.6c2.3-1.4,4.7-2.8,7.1-4.2
			c2.4-1.4,4.7-2.8,7.1-4.2l7.2-4.1l7.2-4l-0.5,0.8c0.1-4.8,0.3-9.6,0.4-14.3l0.2,0.7l-7.3-9.2c-2.4-3.1-4.9-6.2-7.2-9.3
			c-2.4-3.1-4.8-6.2-7.1-9.3C360.7,139.3,358.3,136.2,356,133z"/>
	</g>
	<g>
		<path d="M316,150c0,0,0.8-0.2,2.3-0.5c1.5-0.3,3.6-0.6,6.1-0.8c2.5-0.3,5.5-0.5,8.7-0.6c1.6-0.1,3.2-0.1,4.9-0.1c1.7,0,3.3,0,5,0
			c1.7,0,3.4,0.1,5,0.2c1.7,0.1,3.3,0.2,4.9,0.3c3.2,0.2,6.1,0.6,8.6,0.9c2.5,0.4,4.6,0.7,6.1,1.1c1.5,0.3,2.3,0.5,2.3,0.5
			s-0.8,0.2-2.3,0.5c-1.5,0.3-3.6,0.6-6.1,0.8c-2.5,0.3-5.5,0.5-8.7,0.6c-1.6,0.1-3.2,0.1-4.9,0.1c-1.7,0-3.3,0-5,0
			c-1.7,0-3.4-0.1-5-0.2c-1.7-0.1-3.3-0.2-4.9-0.3c-3.2-0.2-6.1-0.6-8.6-0.9c-2.5-0.4-4.6-0.7-6.1-1.1C316.8,150.2,316,150,316,150z
			"/>
	</g>
	<g>
		<path d="M379,161c0,0,0.3,1.6,0.6,4.1c0.1,1.2,0.2,2.6,0.3,4.2c0,0.8,0.1,1.5,0.1,2.3c0,0.8,0,1.6,0,2.4c0,0.8,0,1.6,0,2.4
			c0,0.8-0.1,1.6-0.1,2.3c-0.1,1.5-0.2,2.9-0.3,4.2c-0.2,2.4-0.6,4.1-0.6,4.1s-0.3-1.6-0.6-4.1c-0.1-1.2-0.2-2.6-0.3-4.2
			c0-0.8-0.1-1.5-0.1-2.3c0-0.8,0-1.6,0-2.4c0-0.8,0-1.6,0-2.4c0-0.8,0.1-1.6,0.1-2.3c0.1-1.5,0.2-2.9,0.3-4.2
			C378.7,162.6,379,161,379,161z"/>
	</g>
	<g>
		<path d="M385.5,184.3c0,0-1-1.1-2.8-3.1c-1.8-2-4.4-4.8-7.4-8.2c-3-3.4-6.5-7.4-10.2-11.8c-1.9-2.2-3.8-4.4-5.7-6.7
			c-1.9-2.3-3.9-4.6-5.9-6.9c-1.9-2.3-3.9-4.7-5.8-7c-1.9-2.3-3.8-4.6-5.6-6.8c-3.6-4.4-6.9-8.6-9.8-12.2c-2.8-3.6-5.1-6.6-6.8-8.7
			c-1.6-2.1-2.5-3.3-2.5-3.3s1,1.1,2.8,3.1c1.8,2,4.4,4.8,7.4,8.2c3,3.4,6.5,7.4,10.2,11.8c1.9,2.2,3.8,4.4,5.7,6.7
			c1.9,2.3,3.9,4.6,5.9,6.9c1.9,2.3,3.9,4.7,5.8,7c1.9,2.3,3.8,4.6,5.6,6.8c3.6,4.4,6.9,8.6,9.8,12.2c2.8,3.6,5.1,6.6,6.8,8.7
			C384.6,183.1,385.5,184.3,385.5,184.3z"/>
	</g>
	<g>
		<path fill="none" d="M348.3,197.5"/>
	</g>
	<g>
		<path d="M315,208c0,0,3.4-0.3,8.4-0.6c2.5-0.1,5.5-0.2,8.6-0.3c1.6,0,3.2-0.1,4.9-0.1c1.7,0,3.3,0,5,0c1.7,0,3.4,0,5,0
			c1.7,0,3.3,0.1,4.9,0.1c3.2,0.1,6.1,0.2,8.6,0.3c5.1,0.2,8.4,0.6,8.4,0.6s-3.4,0.3-8.4,0.6c-2.5,0.1-5.5,0.2-8.6,0.3
			c-1.6,0-3.2,0.1-4.9,0.1c-1.7,0-3.3,0-5,0c-1.7,0-3.4,0-5,0c-1.7,0-3.3-0.1-4.9-0.1c-3.2-0.1-6.1-0.2-8.6-0.3
			C318.4,208.3,315,208,315,208z"/>
	</g>
	<g>
		<path d="M417.5,151c0,0,0,1,0.1,2.8c0.1,1.8,0.2,4.5,0.4,7.9c0.3,6.8,0.6,16.5,0.9,28.2c0.2,5.8,0.3,12.2,0.4,18.8
			c0.1,6.7,0.3,13.7,0.3,21c0.1,7.3,0.2,14.8,0.2,22.5c0,7.7,0.1,15.4,0.1,23.2c0,7.8-0.1,15.6-0.1,23.2c0,7.7-0.1,15.2-0.2,22.5
			c-0.1,7.3-0.2,14.3-0.3,21c-0.1,6.7-0.3,13-0.4,18.8c-0.3,11.7-0.7,21.4-0.9,28.2c-0.1,3.4-0.3,6.1-0.4,7.9
			c-0.1,1.8-0.1,2.8-0.1,2.8s0-1-0.1-2.8c-0.1-1.8-0.2-4.5-0.4-7.9c-0.3-6.8-0.6-16.5-0.9-28.2c-0.2-5.8-0.3-12.2-0.4-18.8
			c-0.1-6.7-0.3-13.7-0.3-21c-0.1-7.3-0.2-14.8-0.2-22.5c0-7.7-0.1-15.4-0.1-23.2c0-7.8,0.1-15.6,0.1-23.2c0-7.7,0.2-15.2,0.2-22.5
			c0.1-7.3,0.2-14.3,0.3-21c0.1-6.7,0.3-13,0.4-18.8c0.3-11.7,0.7-21.4,0.9-28.2c0.1-3.4,0.3-6.1,0.4-7.9
			C417.5,152,417.5,151,417.5,151z"/>
	</g>
	<g>
		<path d="M417.3,224.5c0,0,1.3,0.7,3.6,2.1c2.3,1.4,5.6,3.3,9.5,5.6c3.9,2.4,8.5,5.1,13.4,8.1c2.4,1.5,4.9,3.1,7.5,4.7
			c2.5,1.6,5.1,3.2,7.7,4.9c2.6,1.7,5.1,3.3,7.7,4.9c2.5,1.6,5,3.3,7.4,4.8c4.8,3.1,9.3,6.1,13,8.7c3.8,2.6,6.9,4.8,9.1,6.3
			c2.2,1.5,3.4,2.4,3.4,2.4s-1.3-0.7-3.6-2.1c-2.3-1.4-5.6-3.3-9.5-5.6c-3.9-2.4-8.5-5.1-13.4-8.1c-2.4-1.5-4.9-3.1-7.5-4.7
			c-2.5-1.6-5.1-3.2-7.7-4.9c-2.6-1.7-5.1-3.3-7.7-4.9c-2.5-1.6-5-3.3-7.4-4.8c-4.8-3.1-9.3-6.1-13-8.7c-3.8-2.6-6.9-4.8-9.1-6.3
			C418.6,225.4,417.3,224.5,417.3,224.5z"/>
	</g>
	<g>
		<path d="M417.5,200.5c0,0,1.4,0.6,3.9,1.7c2.5,1.1,6,2.7,10.2,4.7c2.1,1,4.3,2.1,6.7,3.3c2.4,1.2,4.9,2.5,7.4,3.8
			c2.6,1.4,5.2,2.8,7.8,4.2c2.7,1.5,5.3,3,8,4.5c2.7,1.5,5.3,3.1,7.9,4.6c2.6,1.5,5.2,3.1,7.6,4.6c2.5,1.5,4.8,3,7,4.4
			c2.2,1.4,4.3,2.8,6.3,4.1c3.9,2.6,7,4.8,9.2,6.4c2.2,1.6,3.4,2.5,3.4,2.5s-1.4-0.6-3.9-1.7c-2.5-1.1-6-2.7-10.2-4.7
			c-2.1-1-4.3-2.1-6.7-3.3c-2.4-1.2-4.9-2.5-7.4-3.8c-2.5-1.4-5.2-2.8-7.8-4.2c-2.7-1.5-5.3-3-8-4.5c-2.7-1.5-5.3-3.1-7.9-4.6
			c-2.6-1.5-5.2-3.1-7.6-4.6c-2.5-1.5-4.8-3-7-4.4c-2.2-1.4-4.3-2.8-6.3-4.1c-3.9-2.6-7-4.8-9.2-6.4
			C418.7,201.5,417.5,200.5,417.5,200.5z"/>
	</g>
	<g>
		<path fill="none" d="M475,198"/>
	</g>
	<g>
		<path fill="none" d="M475,151"/>
	</g>
	<g>
		<path d="M409,199.5c5.5-0.2,11-0.4,16.5-0.6c5.5-0.2,11-0.3,16.5-0.5c5.5-0.1,11-0.3,16.5-0.4l16.5-0.3l-1.1,0.4l17.3-15.8
			l-0.7,1.5l-0.2-17.6l0.8,1.7c-6.5-5.2-13-10.4-19.4-15.7l1.5,0.5l-32.8-0.2l-32.8-0.3l2.4-2.4l-0.3,31.7l-0.4,31.7
			c-0.2,10.6-0.4,21.2-0.7,31.7c-0.1,5.3-0.3,10.6-0.4,15.9c-0.1,5.3-0.4,10.6-0.6,15.9c-0.2-5.3-0.4-10.6-0.6-15.9
			c-0.2-5.3-0.3-10.6-0.4-15.9c-0.3-10.6-0.5-21.2-0.7-31.7l-0.4-31.7l-0.3-31.7l0-2.4l2.4,0l32.8,0.2l32.8,0.3l0.9,0l0.7,0.5
			c6.4,5.3,12.8,10.7,19.2,16l0.8,0.7l0,1l-0.2,17.6l0,1l-0.7,0.6l-17.7,15.2l-0.5,0.4l-0.6,0l-16.5-0.3c-5.5-0.1-11-0.2-16.5-0.4
			c-5.5-0.1-11-0.3-16.5-0.5C420,199.9,414.5,199.7,409,199.5z"/>
	</g>
	<g>
		<path d="M474.7,150.5c0,0,0.4,3,0.6,7.4c0.1,2.2,0.3,4.8,0.4,7.6c0,1.4,0.1,2.8,0.1,4.3c0,1.5,0,2.9,0.1,4.4c0,1.5,0,3,0,4.4
			c0,1.5,0,2.9-0.1,4.3c-0.1,2.8-0.1,5.4-0.3,7.6c-0.2,4.5-0.5,7.4-0.5,7.4s-0.4-3-0.6-7.4c-0.1-2.2-0.3-4.8-0.4-7.6
			c0-1.4-0.1-2.8-0.1-4.3c0-1.5,0-2.9-0.1-4.4c0-1.5,0-3,0-4.4c0-1.5,0-2.9,0.1-4.3c0.1-2.8,0.1-5.4,0.3-7.6
			C474.4,153.5,474.7,150.5,474.7,150.5z"/>
	</g>
	<g>
		<path fill="none" d="M483,157"/>
	</g>
	<g>
		<path fill="none" d="M417,157"/>
	</g>
	<g>
		<path d="M433,198c0,0,1.1,0.5,2.9,1.4c1.8,0.9,4.5,2.2,7.6,3.9c3.1,1.6,6.8,3.6,10.6,5.7c1.9,1.1,3.9,2.1,6,3.3
			c2,1.1,4.1,2.3,6.1,3.4c2,1.2,4.1,2.3,6.1,3.5c2,1.1,4,2.3,5.9,3.4c3.8,2.2,7.3,4.4,10.3,6.2c3,1.8,5.5,3.4,7.2,4.5
			c1.7,1.1,2.7,1.8,2.7,1.8s-1.1-0.5-2.9-1.4c-1.8-0.9-4.5-2.2-7.6-3.9c-3.1-1.6-6.8-3.6-10.6-5.7c-1.9-1.1-3.9-2.1-6-3.3
			c-2-1.1-4.1-2.3-6.1-3.4c-2-1.2-4.1-2.3-6.1-3.5c-2-1.1-4-2.3-5.9-3.4c-3.8-2.2-7.3-4.4-10.3-6.2c-3-1.8-5.5-3.4-7.2-4.5
			C434,198.7,433,198,433,198z"/>
	</g>
	<g>
		<path d="M409,184c0,0,1.3-0.1,3.7-0.2c2.3-0.1,5.6-0.3,9.6-0.4c4-0.1,8.6-0.2,13.6-0.3c2.5,0,5.1-0.1,7.7-0.1c2.6,0,5.3,0,7.9,0
			c2.7,0,5.3,0,7.9,0c2.6,0,5.2,0.1,7.7,0.1c5,0.1,9.6,0.2,13.6,0.3c4,0.1,7.3,0.3,9.6,0.4c2.3,0.1,3.7,0.2,3.7,0.2
			s-1.3,0.1-3.7,0.2c-2.3,0.1-5.6,0.3-9.6,0.4c-4,0.1-8.6,0.2-13.6,0.3c-2.5,0-5.1,0.1-7.7,0.1c-2.6,0-5.3,0-7.9,0
			c-2.7,0-5.3,0-7.9,0c-2.6,0-5.2-0.1-7.7-0.1c-5-0.1-9.6-0.2-13.6-0.3c-4-0.1-7.3-0.3-9.6-0.4C410.3,184.1,409,184,409,184z"/>
	</g>
	<g>
		<path d="M540.5,151c0,0,0.2,1.8,0.5,4.9c0.3,3.1,0.6,7.5,0.9,12.8c0.2,2.6,0.3,5.5,0.4,8.6c0.1,3,0.3,6.2,0.4,9.5
			c0.1,3.3,0.2,6.7,0.2,10.2c0.1,3.5,0.1,7,0.1,10.5c0,3.5,0,7.1-0.1,10.5c0,3.5-0.1,6.9-0.2,10.2c-0.1,3.3-0.2,6.5-0.4,9.5
			c-0.1,3-0.3,5.9-0.4,8.6c-0.3,5.3-0.7,9.7-0.9,12.8c-0.3,3.1-0.5,4.9-0.5,4.9s-0.2-1.8-0.5-4.9c-0.3-3.1-0.6-7.5-0.9-12.8
			c-0.2-2.6-0.3-5.5-0.4-8.6c-0.1-3-0.3-6.2-0.4-9.5c-0.1-3.3-0.2-6.7-0.2-10.2c-0.1-3.5-0.1-7-0.1-10.5c0-3.5,0-7.1,0.1-10.5
			c0-3.5,0.1-6.9,0.2-10.2c0.1-3.3,0.2-6.5,0.4-9.5c0.1-3,0.3-5.9,0.4-8.6c0.3-5.3,0.7-9.7,0.9-12.8
			C540.3,152.8,540.5,151,540.5,151z"/>
	</g>
	<g>
		<path d="M548,152c0,0,0.1,2.1,0.2,5.7c0.1,3.6,0.3,8.8,0.4,15.1c0.1,6.2,0.2,13.5,0.3,21.3c0,3.9,0.1,7.9,0.1,12
			c0,4.1,0,8.2,0,12.4c0,4.2,0,8.3,0,12.4c0,4.1-0.1,8.1-0.1,12c-0.1,7.8-0.2,15.1-0.3,21.3c-0.1,6.2-0.3,11.4-0.4,15.1
			c-0.1,3.6-0.2,5.7-0.2,5.7s-0.1-2.1-0.2-5.7c-0.1-3.6-0.3-8.8-0.4-15.1c-0.1-6.2-0.2-13.5-0.3-21.3c0-3.9-0.1-7.9-0.1-12
			c0-4.1,0-8.2,0-12.4c0-4.2,0-8.3,0-12.4c0-4.1,0.1-8.1,0.1-12c0.1-7.8,0.2-15.1,0.3-21.3c0.1-6.2,0.3-11.4,0.4-15.1
			C547.9,154.1,548,152,548,152z"/>
	</g>
	<g>
		<path d="M556.5,134c0,0,0,1,0.1,3c0.1,2,0.2,4.8,0.4,8.5c0.3,7.3,0.6,17.7,0.9,30.2c0.2,6.3,0.3,13,0.4,20.2
			c0.1,7.2,0.3,14.7,0.3,22.6c0.1,7.8,0.2,15.9,0.2,24.1c0,8.2,0.1,16.6,0.1,24.9c0,8.3-0.1,16.7-0.1,24.9c0,8.2-0.1,16.3-0.2,24.1
			c-0.1,7.8-0.2,15.4-0.3,22.6c-0.1,7.2-0.3,13.9-0.4,20.2c-0.3,12.5-0.7,22.9-0.9,30.2c-0.2,3.7-0.3,6.5-0.4,8.5
			c-0.1,2-0.1,3-0.1,3s0-1-0.1-3c-0.1-2-0.2-4.8-0.4-8.5c-0.3-7.3-0.6-17.7-0.9-30.2c-0.2-6.3-0.3-13-0.4-20.2
			c-0.1-7.2-0.3-14.7-0.3-22.6c-0.1-7.8-0.2-15.9-0.2-24.1c0-8.2-0.1-16.6-0.1-24.9c0-8.3,0.1-16.7,0.1-24.9
			c0-8.2,0.2-16.3,0.2-24.1c0.1-7.8,0.2-15.4,0.3-22.6c0.1-7.2,0.3-13.9,0.4-20.2c0.3-12.5,0.7-22.9,0.9-30.2
			c0.2-3.7,0.3-6.5,0.4-8.5C556.5,135,556.5,134,556.5,134z"/>
	</g>
	<g>
		<path d="M565,152c0,0,0.1,1.9,0.2,5.2c0.1,3.3,0.3,8,0.4,13.7c0.1,5.7,0.2,12.3,0.3,19.4c0,3.5,0.1,7.2,0.1,10.9
			c0,3.7,0,7.5,0,11.3c0,3.8,0,7.6,0,11.3c0,3.7-0.1,7.4-0.1,10.9c-0.1,7.1-0.2,13.7-0.3,19.4c-0.1,5.7-0.3,10.4-0.4,13.7
			c-0.1,3.3-0.2,5.2-0.2,5.2s-0.1-1.9-0.2-5.2c-0.1-3.3-0.3-8-0.4-13.7c-0.1-5.7-0.2-12.3-0.3-19.4c0-3.5-0.1-7.2-0.1-10.9
			c0-3.7,0-7.5,0-11.3c0-3.8,0-7.6,0-11.3c0-3.7,0.1-7.4,0.1-10.9c0.1-7.1,0.2-13.7,0.3-19.4c0.1-5.7,0.3-10.4,0.4-13.7
			C564.9,153.9,565,152,565,152z"/>
	</g>
	<path fill="none" stroke="#000000" stroke-width="5" stroke-miterlimit="10" d="M573.5,299"/>
	<g>
		<path fill="none" d="M573.5,151"/>
	</g>
	<g>
		<path fill="none" d="M668,272"/>
	</g>
	<g>
		<path d="M687.9,188l-10.2-14.3l-10.2-14.4l0.4,0.2l-26.5,0.2l0.4-0.1l-7.8,5.8l-7.9,5.8l-15.7,11.5l0.4-0.7l0.1,25.5l-0.1,25.5
			l-0.3-0.7l14.5,12.5c4.8,4.2,9.6,8.4,14.4,12.6l-0.5-0.2l28,0.2l-0.4,0.2l10.7-14.2c3.6-4.7,7.1-9.5,10.7-14.2
			c-3.4,4.9-6.8,9.7-10.3,14.5l-10.3,14.5l-0.2,0.2l-0.3,0l-28,0.2l-0.3,0l-0.2-0.2c-4.9-4.1-9.7-8.3-14.6-12.4l-14.5-12.5l-0.3-0.3
			l0-0.4l-0.1-25.5l0.1-25.5l0-0.5l0.4-0.3l15.8-11.5l7.9-5.7l7.9-5.7l0.2-0.1l0.2,0l26.5,0.2l0.3,0l0.1,0.2l9.8,14.6L687.9,188z"/>
	</g>
	<g>
		<path fill="none" d="M696,182"/>
	</g>
	<g>
		<path fill="none" d="M662.8,131.2"/>
	</g>
	<g>
		<path d="M626,247c0,0,3.1-0.3,7.7-0.6c2.3-0.1,5-0.2,7.8-0.3c1.4,0,2.9-0.1,4.4-0.1c1.5,0,3,0,4.6,0c1.5,0,3.1,0,4.6,0
			c1.5,0,3,0.1,4.4,0.1c2.9,0.1,5.6,0.2,7.8,0.3c4.6,0.2,7.7,0.6,7.7,0.6s-3.1,0.3-7.7,0.6c-2.3,0.1-5,0.2-7.8,0.3
			c-1.4,0-2.9,0.1-4.4,0.1c-1.5,0-3,0-4.6,0c-1.5,0-3.1,0-4.6,0c-1.5,0-3-0.1-4.4-0.1c-2.9-0.1-5.6-0.2-7.8-0.3
			C629.1,247.3,626,247,626,247z"/>
	</g>
	<g>
		<path fill="none" d="M674,168.5"/>
	</g>
	<g>
		<path fill="none" d="M628,168.5"/>
	</g>
	<g>
		<path fill="none" d="M627,168.5"/>
	</g>
	<g>
		<path fill="none" d="M627.5,247"/>
	</g>
	<g>
		<path d="M677,200.1c-3.3-4.2-6.6-8.4-9.8-12.6c-3.3-4.2-6.5-8.5-9.7-12.7c-3.2-4.2-6.4-8.5-9.6-12.8l-9.6-12.8l2.5,0.4l-11.2,8.6
			l-11.2,8.6l-22.5,17.1l1-1.9l0.1,25.5c0,4.2,0,8.5,0,12.7l0,12.7l-0.8-1.8c6.4,5.7,12.9,11.4,19.3,17.1l19.2,17.2l-1.3-0.5
			l20.7,0.8l20.7,0.9l-1.1,0.6c4.3-5.7,8.7-11.4,13-17.2l6.6-8.5l6.6-8.5l-6,9l-6,9c-4,5.9-8.1,11.9-12.1,17.8l-0.4,0.6l-0.7,0
			l-20.7-0.1l-20.7-0.2l-0.7,0l-0.6-0.5l-19.5-16.8c-6.5-5.6-13-11.3-19.5-16.9l-0.8-0.7l0-1.1l0-12.7c0-4.2,0-8.5,0-12.7l0.1-25.5
			l0-1.2l1-0.7l22.8-16.7l11.4-8.3l11.4-8.3l1.5-1.1l1,1.4l9.1,13.2c3,4.4,6,8.8,9,13.2c3,4.4,6,8.8,8.9,13.3
			C671.1,191.2,674.1,195.6,677,200.1z"/>
	</g>
	<g>
		<path d="M601,177c0,0,0.3,3.9,0.6,9.7c0.1,2.9,0.2,6.3,0.3,9.9c0,1.8,0.1,3.7,0.1,5.6c0,1.9,0,3.8,0,5.8c0,1.9,0,3.9,0,5.8
			c0,1.9-0.1,3.8-0.1,5.6c-0.1,3.6-0.2,7-0.3,9.9c-0.2,5.8-0.6,9.7-0.6,9.7s-0.3-3.9-0.6-9.7c-0.1-2.9-0.2-6.3-0.3-9.9
			c0-1.8-0.1-3.7-0.1-5.6c0-1.9,0-3.8,0-5.8c0-1.9,0-3.9,0-5.8c0-1.9,0.1-3.8,0.1-5.6c0.1-3.6,0.2-7,0.3-9.9
			C600.7,180.9,601,177,601,177z"/>
	</g>
	<g>
		<path d="M628,169c0,0,2.9-0.3,7.2-0.6c2.2-0.1,4.7-0.2,7.4-0.3c1.3,0,2.7-0.1,4.2-0.1c1.4,0,2.9,0,4.3,0c1.4,0,2.9,0,4.3,0
			c1.4,0,2.8,0.1,4.2,0.1c2.7,0.1,5.2,0.2,7.4,0.3c4.3,0.2,7.2,0.6,7.2,0.6s-2.9,0.3-7.2,0.6c-2.2,0.1-4.7,0.2-7.4,0.3
			c-1.3,0-2.7,0.1-4.2,0.1c-1.4,0-2.9,0-4.3,0c-1.4,0-2.9,0-4.3,0c-1.4,0-2.8-0.1-4.2-0.1c-2.7-0.1-5.2-0.2-7.4-0.3
			C630.9,169.3,628,169,628,169z"/>
	</g>
	<g>
		<path d="M640,147.5c1.4-0.3,2.8-0.5,4.3-0.7c1.4-0.2,2.8-0.3,4.3-0.5c1.4-0.2,2.8-0.3,4.2-0.4c1.4-0.1,2.8-0.2,4.3-0.3
			c2.8-0.2,5.7-0.3,8.5-0.4c2.8-0.1,5.7-0.2,8.5-0.2l1.2,0l0.8,1c1,1.3,1.9,2.5,2.8,3.8c0.9,1.3,1.9,2.6,2.8,3.9
			c1.8,2.6,3.6,5.2,5.4,7.9c1.8,2.6,3.5,5.3,5.1,8.1c0.8,1.4,1.6,2.8,2.4,4.1c0.8,1.4,1.6,2.8,2.3,4.2c-1.2-1.1-2.3-2.2-3.4-3.4
			c-1.1-1.2-2.2-2.3-3.3-3.5c-2.2-2.3-4.3-4.7-6.3-7.2c-2.1-2.4-4-4.9-6-7.4c-1-1.3-2-2.5-2.9-3.8c-1-1.3-1.9-2.5-2.9-3.8l2,1
			c-2.8,0-5.7-0.1-8.5-0.2c-2.8-0.1-5.7-0.2-8.5-0.4c-1.4-0.1-2.8-0.2-4.3-0.3c-1.4-0.1-2.8-0.3-4.2-0.4c-1.4-0.2-2.8-0.3-4.3-0.5
			C642.8,148,641.4,147.8,640,147.5z"/>
	</g>
	<g>
		<path d="M713,151c0,0,0.1,1.5,0.2,4.3c0.1,2.7,0.3,6.6,0.4,11.2c0.1,4.6,0.2,10.1,0.3,15.9c0,2.9,0.1,5.9,0.1,8.9c0,3,0,6.1,0,9.2
			c0,3.1,0,6.2,0,9.2c0,3-0.1,6-0.1,8.9c-0.1,5.8-0.2,11.2-0.3,15.9c-0.1,4.6-0.3,8.5-0.4,11.2c-0.1,2.7-0.2,4.3-0.2,4.3
			s-0.1-1.5-0.2-4.3c-0.1-2.7-0.3-6.6-0.4-11.2c-0.1-4.6-0.2-10.1-0.3-15.9c0-2.9-0.1-5.9-0.1-8.9c0-3,0-6.1,0-9.2
			c0-3.1,0-6.2,0-9.2c0-3,0.1-6,0.1-8.9c0.1-5.8,0.2-11.2,0.3-15.9c0.1-4.6,0.3-8.5,0.4-11.2C712.9,152.5,713,151,713,151z"/>
	</g>
	<g>
		<path d="M721.5,140c0,0,0.1,1,0.2,2.9c0.1,1.9,0.4,4.7,0.6,8.3c0.5,7.1,1.2,17.3,1.8,29.5c0.3,6.1,0.7,12.7,1,19.7
			c0.3,7,0.7,14.4,1,22c0.3,7.6,0.7,15.5,0.9,23.5c0.3,8,0.6,16.2,0.8,24.3c0.2,8.1,0.4,16.3,0.7,24.3c0.2,8,0.3,15.9,0.5,23.5
			c0.2,7.6,0.3,15,0.3,22c0.1,7,0.1,13.6,0.2,19.7c0.1,12.2,0,22.4,0,29.5c0,3.6-0.1,6.4-0.1,8.3c0,1.9,0,2.9,0,2.9s-0.1-1-0.2-2.9
			c-0.1-1.9-0.4-4.7-0.6-8.3c-0.5-7.1-1.2-17.3-1.8-29.5c-0.3-6.1-0.7-12.7-1-19.7c-0.3-7-0.7-14.4-1-22c-0.3-7.6-0.7-15.5-0.9-23.5
			c-0.3-8-0.6-16.2-0.8-24.3c-0.2-8.1-0.4-16.3-0.7-24.3c-0.2-8-0.3-15.9-0.5-23.5c-0.2-7.6-0.2-15-0.3-22c-0.1-7-0.1-13.6-0.2-19.7
			c-0.1-12.2,0-22.4,0-29.5c0-3.6,0.1-6.4,0.1-8.3C721.5,141,721.5,140,721.5,140z"/>
	</g>
	<g>
		<path d="M721.5,200.8c0,0,1-1,2.8-2.7c1.8-1.7,4.4-4,7.6-6.7c6.4-5.5,15.1-12.4,24.1-18.9c9-6.6,18.2-12.8,25.4-17.2
			c3.5-2.2,6.6-4,8.7-5.2c2.1-1.2,3.4-1.9,3.4-1.9s-1,1-2.8,2.7c-1.8,1.7-4.4,4-7.6,6.7c-6.4,5.5-15.1,12.4-24.1,18.9
			c-9,6.6-18.2,12.8-25.4,17.2c-3.5,2.2-6.6,4-8.7,5.2C722.8,200.1,721.5,200.8,721.5,200.8z"/>
	</g>
	<g>
		<path d="M740.3,187c0,0,1,0.9,2.7,2.4c1.7,1.6,4,3.8,6.7,6.6c5.5,5.6,12.4,13.3,19.1,21.2c6.6,8,13,16.2,17.5,22.6
			c2.3,3.2,4.1,5.9,5.3,7.8c1.2,1.9,1.9,3.1,1.9,3.1s-1-0.9-2.7-2.4c-1.7-1.6-4-3.8-6.7-6.6c-5.5-5.5-12.4-13.3-19.1-21.2
			c-6.6-8-13-16.2-17.5-22.6c-2.3-3.2-4.1-5.9-5.3-7.8C741,188.1,740.3,187,740.3,187z"/>
	</g>
	<g>
		<path d="M721.5,184c0,0,1.1-0.9,3-2.3c1.9-1.5,4.6-3.6,7.9-6.1c3.3-2.5,7.2-5.4,11.4-8.4c2.1-1.5,4.3-3.1,6.5-4.7
			c2.2-1.6,4.5-3.2,6.7-4.8c2.3-1.6,4.5-3.2,6.7-4.7c2.2-1.6,4.4-3.1,6.6-4.5c4.3-2.9,8.3-5.6,11.7-7.9c3.4-2.3,6.4-4.1,8.4-5.5
			c2-1.3,3.2-2,3.2-2s-1.1,0.9-3,2.4c-1.9,1.5-4.6,3.6-7.9,6.1c-3.3,2.5-7.2,5.4-11.4,8.4c-2.1,1.5-4.2,3.1-6.5,4.7
			c-2.2,1.6-4.5,3.2-6.7,4.8c-2.3,1.6-4.5,3.2-6.7,4.7c-2.2,1.5-4.4,3.1-6.6,4.5c-4.3,2.9-8.3,5.6-11.7,7.9
			c-3.4,2.3-6.4,4.1-8.4,5.5C722.7,183.3,721.5,184,721.5,184z"/>
	</g>
	<g>
		<path d="M729.5,192c0,0,1.1,1.2,2.9,3.3c1.8,2.1,4.5,5.1,7.5,8.8c3.1,3.7,6.7,8,10.5,12.6c1.9,2.3,3.9,4.7,5.9,7.2
			c2,2.5,4,4.9,6,7.4c2,2.5,4,5,5.9,7.5c1.9,2.5,3.9,4.9,5.7,7.3c3.7,4.7,7.1,9.2,10,13c2.9,3.8,5.3,7.1,7,9.3
			c1.7,2.3,2.6,3.6,2.6,3.6s-1.1-1.2-2.9-3.3c-1.8-2.1-4.5-5.1-7.5-8.8c-3.1-3.7-6.7-8-10.5-12.6c-1.9-2.3-3.9-4.7-5.8-7.2
			c-2-2.5-4-4.9-6-7.4c-2-2.5-4-5-5.9-7.5c-1.9-2.5-3.9-4.9-5.7-7.3c-3.7-4.7-7.1-9.2-10-13c-2.9-3.8-5.3-7.1-7-9.3
			C730.4,193.3,729.5,192,729.5,192z"/>
	</g>
	<g>
		<polygon points="807.2,112.5 808.4,118.8 816,113.9 811.5,125.2 825.3,114.1 816.8,104.4 		"/>
		<path d="M807.2,112.5c0.6,2.1,1.1,4.2,1.6,6.3l-0.6-0.2c1.2-0.9,2.5-1.8,3.7-2.6l3.7-2.6l1.9-1.3l-0.8,2.2
			c-0.7,1.9-1.4,3.8-2.1,5.7l-2.2,5.7l-1.5-1.1l6.9-5.6c2.3-1.8,4.6-3.7,6.9-5.5l-0.1,1.3l-4.2-4.9c-1.4-1.7-2.8-3.3-4.1-5l0.9,0.1
			c-1.7,1.3-3.3,2.6-5,3.8C810.5,110,808.9,111.3,807.2,112.5z M807.2,112.5c1.5-1.5,3-2.9,4.6-4.3c1.5-1.4,3.1-2.8,4.6-4.2l0.4-0.4
			l0.4,0.5c1.5,1.6,2.9,3.2,4.4,4.7l4.3,4.8l0.6,0.7l-0.8,0.6c-2.3,1.9-4.6,3.7-6.8,5.6l-6.9,5.5l-2.9,2.3l1.4-3.4l2.3-5.6
			c0.8-1.9,1.6-3.7,2.4-5.6l1.1,0.9l-3.9,2.3c-1.3,0.8-2.6,1.5-3.9,2.3l-0.5,0.3l-0.1-0.5C807.8,116.7,807.4,114.6,807.2,112.5z"/>
	</g>
	<g>
		<path d="M814,223.4l10.3,10.9l10.2,11l10.2,11l10.1,11.1l-2.5,0.1l9.8-14.8l9.9-14.8l10-14.7c3.3-4.9,6.6-9.8,10-14.7l1.9,3.8
			l-33.5-0.7l-33.5-0.9l-4.3-0.1l2.3-3.6l20.4-31.6l10.3-15.7c3.4-5.3,6.9-10.5,10.4-15.7l1.2-1.8l1.2,1.7l7.9,11.1l7.9,11.1
			l7.8,11.2l7.8,11.2l-8.5-10.6l-8.5-10.7l-8.4-10.7l-8.4-10.7l2.5-0.1c-3.3,5.4-6.5,10.7-9.8,16.1l-9.9,16L829,209.8l-2-3.7
			l33.5,0.7l33.5,0.9l4.4,0.1l-2.5,3.7c-3.4,4.9-6.8,9.7-10.2,14.5l-10.2,14.5L865.2,255l-10.3,14.5l-1.2,1.7l-1.3-1.6l-9.7-11.5
			l-9.6-11.5l-9.6-11.6L814,223.4z"/>
	</g>
	<g>
		<polygon points="830,225.5 849.2,246.9 868.4,268.4 867.5,268.5 889.1,234.5 910.7,200.5 911.5,201.9 865.5,202 819.5,201.9 
			817.8,201.9 818.8,200.5 831.1,182.4 843.5,164.3 868.3,128.2 868.6,127.7 869,128.2 895,159.1 868.3,128.7 869,128.7 
			844.7,165.1 832.5,183.3 820.2,201.5 819.5,200.1 865.5,200 911.5,200.1 913.2,200.1 912.3,201.5 890.4,235.4 868.5,269.1 
			868.1,269.8 867.6,269.2 848.8,247.4 		"/>
	</g>
	<g>
		<path d="M872.5,152c0,0-0.5,0.9-1.3,2.5c-0.9,1.6-2.1,3.9-3.6,6.6c-1.5,2.7-3.4,5.9-5.3,9.3c-1,1.7-2,3.4-3.1,5.2
			c-1.1,1.8-2.2,3.5-3.2,5.3c-1.1,1.8-2.2,3.5-3.3,5.3c-1.1,1.7-2.2,3.4-3.2,5.1c-2.1,3.3-4.1,6.3-5.9,8.9c-1.7,2.6-3.3,4.7-4.3,6.2
			c-1,1.5-1.7,2.3-1.7,2.3s0.5-0.9,1.3-2.5c0.9-1.6,2.1-3.9,3.6-6.6c1.5-2.7,3.4-5.9,5.3-9.3c1-1.7,2-3.4,3.1-5.2
			c1.1-1.8,2.2-3.5,3.2-5.3c1.1-1.8,2.2-3.5,3.3-5.3c1.1-1.7,2.2-3.4,3.2-5.1c2.1-3.3,4.1-6.3,5.9-8.9c1.7-2.6,3.3-4.7,4.3-6.2
			C871.9,152.8,872.5,152,872.5,152z"/>
	</g>
	<g>
		<path d="M880.5,209.8c0,0-2.3,3-6.3,8.3c-4.1,5.3-9.8,12.8-16.8,21.8c-7,9-15.1,19.5-24,30.7c-8.8,11.2-18.2,23.1-27.6,35.1
			c-9.5,11.9-18.9,23.8-27.8,34.9c-8.9,11.2-17.3,21.5-24.4,30.4c-7.1,8.9-13.2,16.2-17.4,21.4c-4.2,5.1-6.6,8.1-6.6,8.1
			s2.3-3,6.3-8.3c4.1-5.3,9.8-12.8,16.8-21.8c7-9,15.1-19.5,24-30.7c8.8-11.2,18.2-23.1,27.6-35.1c9.5-11.9,19-23.8,27.8-34.9
			c8.9-11.2,17.3-21.5,24.4-30.4c7.2-8.9,13.2-16.2,17.4-21.4C878.1,212.7,880.5,209.8,880.5,209.8z"/>
	</g>
	<polyline fill="none" stroke="#000000" stroke-width="5" stroke-miterlimit="10" points="848,695.3 899.8,1003.5 97.2,1003.5 
		198.5,400.5 798.5,400.5 840.2,648.5 	"/>
	<polyline fill="none" stroke="#000000" stroke-width="5" stroke-miterlimit="10" points="217.1,562.3 236.2,430.5 398.3,430.5 
		396.6,462.8 269.3,462.8 261.1,528.7 370.4,528.7 370.6,494.1 313.8,494.1 	"/>
	<line fill="none" stroke="#000000" stroke-width="5" stroke-miterlimit="10" x1="211.6" y1="600.4" x2="188.5" y2="760.2"/>
	<line fill="none" stroke="#000000" stroke-width="5" stroke-miterlimit="10" x1="401.1" y1="481" x2="461.8" y2="481"/>
	<line fill="none" stroke="#000000" stroke-width="5" stroke-miterlimit="10" x1="428.8" y1="481.4" x2="427.4" y2="519.7"/>
	<line fill="none" stroke="#000000" stroke-width="5" stroke-miterlimit="10" x1="480.2" y1="462.8" x2="479.1" y2="519.3"/>
	<polyline fill="none" stroke="#000000" stroke-width="5" stroke-miterlimit="10" points="479.5,477.7 505.1,477.7 505.1,462.8 
		505.4,545.6 	"/>
	<line fill="none" stroke="#000000" stroke-width="5" stroke-miterlimit="10" x1="504.6" y1="477.7" x2="564.1" y2="477.7"/>
	<polyline fill="none" stroke="#000000" stroke-width="5" stroke-miterlimit="10" points="524.9,478.1 525.7,528.7 590.5,528.7 	"/>
	<line fill="none" stroke="#000000" stroke-width="5" stroke-miterlimit="10" x1="525.3" y1="503.1" x2="547" y2="503.3"/>
	<polyline fill="none" stroke="#000000" stroke-width="5" stroke-miterlimit="10" points="443.4,400.7 442.6,430.5 760.9,430.5 
		769.5,490.2 723.3,490.7 720,463.5 645,463.5 649.4,512.5 773,512.5 	"/>
	<polyline fill="none" stroke="#000000" stroke-width="5" stroke-miterlimit="10" points="207,677.5 367.4,677.5 359.9,804.5 
		255,804.5 	"/>
	<line fill="none" stroke="#000000" stroke-width="5" stroke-miterlimit="10" x1="182" y1="805.4" x2="161.4" y2="948"/>
	<path fill="none" stroke="#000000" stroke-width="5" stroke-miterlimit="10" d="M226.4,713.7"/>
	<line fill="none" stroke="#000000" stroke-width="5" stroke-miterlimit="10" x1="202.2" y1="895.6" x2="225.8" y2="713.7"/>
	<polyline fill="none" stroke="#000000" stroke-width="5" stroke-miterlimit="10" points="265,714.5 331,714.5 325.1,760.5 
		260,760.5 	"/>
	<line fill="none" stroke="#000000" stroke-width="5" stroke-miterlimit="10" x1="602" y1="430.9" x2="606.4" y2="494.1"/>
	<polyline fill="none" stroke="#000000" stroke-width="5" stroke-miterlimit="10" points="404.1,695.3 396,875 506.1,874.3 
		505.7,760.5 459.4,760.5 457.6,843 	"/>
	<polyline fill="none" stroke="#000000" stroke-width="5" stroke-miterlimit="10" points="460,714.5 566.1,714.5 574,938.5 
		756.8,938.5 748.4,874.5 622,874.5 	"/>
	<polyline fill="none" stroke="#000000" stroke-width="5" stroke-miterlimit="10" points="613.3,761.9 620.7,853.5 750.5,853.5 
		730.8,678.5 626.8,678.5 630.5,737.7 708.5,739.4 701,695.5 648,695.5 	"/>
	<polyline fill="none" stroke="#000000" stroke-width="5" stroke-miterlimit="10" points="652.5,771.4 657.1,818.5 716.3,818.5 
		707.5,762.4 	"/>
	<line fill="none" stroke="#000000" stroke-width="5" stroke-miterlimit="10" x1="528.3" y1="739.9" x2="531" y2="939.1"/>
	<polyline fill="none" stroke="#000000" stroke-width="5" stroke-miterlimit="10" points="252,835.5 356.7,835.5 350.8,928.5 
		497.9,928.5 498.5,974.5 817.6,974.5 778,678.5 809,678.5 	"/>
	<polyline fill="none" stroke="#000000" stroke-width="5" stroke-miterlimit="10" points="248.3,862.1 238.4,948.5 275,948.5 
		281,886.5 316.6,886.5 310.4,964.5 468,964.5 	"/>
	<polyline fill="none" stroke="#000000" stroke-width="5" stroke-miterlimit="10" points="137,920.1 128.3,975.5 205,975.5 
		211.9,920 	"/>
	<line fill="none" stroke="#000000" stroke-width="5" stroke-miterlimit="10" x1="237" y1="619.5" x2="292" y2="619.5"/>
	<polyline fill="none" stroke="#000000" stroke-width="5" stroke-miterlimit="10" points="475,739.5 431.9,739.5 434.3,658.6 	"/>
	<line fill="none" stroke="#000000" stroke-width="5" stroke-miterlimit="10" x1="433" y1="687.5" x2="457" y2="687.5"/>
	<line fill="none" stroke="#000000" stroke-width="5" stroke-miterlimit="10" x1="515" y1="687.5" x2="585" y2="687.5"/>
	<polyline fill="none" stroke="#000000" stroke-width="5" stroke-miterlimit="10" points="630,912.5 694.7,912.5 690.5,895.9 	"/>
	<path fill="none" stroke="#000000" stroke-width="5" stroke-miterlimit="10" d="M429.9,781.4"/>
	<line fill="none" stroke="#000000" stroke-width="5" stroke-miterlimit="10" x1="429.1" y1="789.7" x2="427.6" y2="835"/>
	<line fill="none" stroke="#000000" stroke-width="5" stroke-miterlimit="10" x1="258" y1="781.5" x2="326" y2="781.5"/>
</g>
<g id="Layer_2">
</g>
<g id="Layer_3">
	<polyline fill="none" stroke="#000000" stroke-width="5" stroke-miterlimit="10" points="388,546.5 281,546.5 276.6,586.5 
		331.2,586.5 324.8,648.5 208,648.5 	"/>
	<line fill="none" stroke="#000000" stroke-width="5" stroke-miterlimit="10" x1="351.3" y1="562.3" x2="346.8" y2="619.1"/>
	<line fill="none" stroke="#000000" stroke-width="5" stroke-miterlimit="10" x1="348.6" y1="590.7" x2="440.4" y2="590.3"/>
	<path fill="none" stroke="#000000" stroke-width="5" stroke-miterlimit="10" d="M386.1,572.2"/>
	<line fill="none" stroke="#000000" stroke-width="5" stroke-miterlimit="10" x1="381.7" y1="639" x2="385.6" y2="572.2"/>
	<line fill="none" stroke="#000000" stroke-width="5" stroke-miterlimit="10" x1="411" y1="562.5" x2="467" y2="562.5"/>
	<line fill="none" stroke="#000000" stroke-width="5" stroke-miterlimit="10" x1="439.6" y1="562.8" x2="437.1" y2="626.2"/>
	<path fill="none" stroke="#000000" stroke-width="5" stroke-miterlimit="10" d="M398.1,626.2"/>
	<line fill="none" stroke="#000000" stroke-width="5" stroke-miterlimit="10" x1="478" y1="626.5" x2="398" y2="626.5"/>
	<polyline fill="none" stroke="#000000" stroke-width="5" stroke-miterlimit="10" points="475.9,677.2 478.4,580.4 534.9,643.4 
		533.1,545.6 	"/>
	<line fill="none" stroke="#000000" stroke-width="5" stroke-miterlimit="10" x1="552.2" y1="590.3" x2="618.7" y2="590.7"/>
	<polyline fill="none" stroke="#000000" stroke-width="5" stroke-miterlimit="10" points="585.9,591 588.9,658.5 643.3,658.5 
		505.6,658.1 	"/>
	<polyline fill="none" stroke="#000000" stroke-width="5" stroke-miterlimit="10" points="757.2,619.7 724.2,619.2 721,591.7 
		780.9,592.1 787.6,639.5 690.1,639.5 692.3,662.4 627.1,529.3 632.5,609.5 602,609.5 	"/>
	<polyline fill="none" stroke="#000000" stroke-width="5" stroke-miterlimit="10" points="735.9,559.7 736.9,567.8 774.2,568 
		770.4,541.5 680.3,541.5 690.2,639.6 	"/>
	<path fill="none" stroke="#000000" stroke-width="5" stroke-miterlimit="10" d="M851.3,714.5"/>
	<path fill="none" stroke="#000000" stroke-width="5" stroke-miterlimit="10" d="M842.5,662.4"/>
	<line fill="none" stroke="#000000" stroke-width="5" stroke-miterlimit="10" x1="814" y1="714.5" x2="856.9" y2="985"/>
</g>
</svg>
